<?xml version="1.0" encoding="UTF-8"?>
<svg xmlns="http://www.w3.org/2000/svg" viewBox="0 0 300 220" fill="none" role="img" aria-labelledby="t3">
  <title id="t3">Actions and status</title>
  <defs>
    <linearGradient id="a-bg" x1="0" y1="0" x2="1" y2="1">
      <stop offset="0%" stop-color="#1e293b"/>
      <stop offset="100%" stop-color="#0f172a"/>
    </linearGradient>
  </defs>
  <rect x="8" y="8" width="284" height="204" rx="16" fill="url(#a-bg)" stroke="#334155" stroke-width="1.2"/>
  <rect x="22" y="20" width="256" height="6" rx="3" fill="#475569" opacity="0.85"/>
  <text x="22" y="48" fill="#94a3b8" font-size="11" font-family="ui-sans-serif,system-ui,sans-serif" font-weight="600">3</text>
  <text x="38" y="48" fill="#cbd5e1" font-size="11" font-family="ui-sans-serif,system-ui,sans-serif">Actions</text>
  <g transform="translate(22,58)">
    <rect width="120" height="44" rx="10" fill="#0f172a" stroke="#3f4f63"/>
    <rect x="128" y="0" width="120" height="44" rx="10" fill="#0f172a" stroke="#3f4f63"/>
    <rect y="52" width="120" height="44" rx="10" fill="#0f172a" stroke="#3f4f63"/>
    <rect x="128" y="52" width="120" height="44" rx="10" fill="#0f172a" stroke="#3f4f63"/>
    <circle cx="60" cy="22" r="7" stroke="#007AFF" stroke-width="1.4" fill="none"/>
    <path d="M60 18v8M56 22h8" stroke="#007AFF" stroke-width="1.2" stroke-linecap="round"/>
    <path d="M188 17l5 10h-10l5-10z" fill="#007AFF" opacity="0.9"/>
    <circle cx="60" cy="74" r="8" stroke="#64748b" stroke-width="1.2" fill="none"/>
    <circle cx="60" cy="70" r="2.5" fill="#64748b"/>
    <rect x="182" y="66" width="10" height="18" rx="1.5" stroke="#ef4444" stroke-width="1.2" fill="none"/>
  </g>
  <rect x="22" y="174" width="256" height="26" rx="8" fill="#1e293b" stroke="#7f1d1d" stroke-width="1"/>
  <circle cx="34" cy="187" r="3" fill="#ef4444"/>
  <rect x="44" y="183" width="140" height="5" rx="2" fill="#64748b" opacity="0.55"/>
</svg>
